<svg width="24" height="25" viewBox="0 0 24 25" fill="none" xmlns="http://www.w3.org/2000/svg">
<g clip-path="url(#clip0_1_2497)">
<g clip-path="url(#clip1_1_2497)">
<path d="M6.61982 17.1897C7.49015 16.7941 8.4396 16.5303 9.4418 16.3457C9.25718 15.5018 9.15169 14.6314 9.12532 13.7347H4.82642C4.90554 15.1062 5.35389 16.3457 6.09235 17.4007L6.61982 17.1897Z" fill="#AAAAAA"/>
<path d="M6.96272 18.0336L6.64624 18.1655C7.80668 19.4842 9.44184 20.3545 11.2616 20.5655L11.1825 20.46C10.5232 19.5633 9.99569 18.4556 9.65283 17.2424C8.67701 17.4007 7.78031 17.6644 6.96272 18.0336Z" fill="#AAAAAA"/>
<path d="M9.62647 9.40952C9.94295 8.27545 10.4177 7.2205 11.0243 6.35017L11.2616 6.03369C9.41548 6.24468 7.80669 7.14138 6.61987 8.46006L6.90998 8.59193C7.75394 8.96116 8.67702 9.25127 9.62647 9.40952Z" fill="#AAAAAA"/>
<path d="M9.41543 10.2798C8.38686 10.0952 7.4374 9.80508 6.5407 9.40948L6.06598 9.19849C5.35389 10.2534 4.90554 11.5194 4.82642 12.8644H9.12532C9.15169 11.9677 9.23081 11.0974 9.41543 10.2798Z" fill="#AAAAAA"/>
<path d="M17.4858 18.2446L17.3012 18.1128C16.4045 17.6908 15.4023 17.4007 14.3473 17.2161C14.0045 18.4293 13.477 19.5369 12.8177 20.4336L12.7122 20.5919C14.6111 20.4336 16.2726 19.5633 17.4858 18.2446Z" fill="#AAAAAA"/>
<path d="M17.3275 8.51281L17.5385 8.40732C16.3253 7.06226 14.6374 6.19193 12.7385 6.03369L12.9759 6.37655C13.5825 7.24688 14.0308 8.30182 14.3737 9.43589C15.4286 9.25127 16.4308 8.93479 17.3275 8.51281Z" fill="#AAAAAA"/>
<path d="M9.99561 12.8381H13.978C13.9516 11.9942 13.8462 11.1766 13.6879 10.4117C13.1341 10.4645 12.5802 10.5172 12.0264 10.5172C11.4462 10.5172 10.8659 10.4909 10.3121 10.4117C10.1275 11.1766 10.022 12.0205 9.99561 12.8381Z" fill="#AAAAAA"/>
<path d="M18.0924 9.09302L17.7232 9.30401C16.7737 9.75236 15.6924 10.0952 14.5847 10.2798C14.7693 11.0974 14.8485 11.9677 14.8748 12.8381H19.4111C19.332 11.4666 18.8572 10.1743 18.0924 9.09302Z" fill="#AAAAAA"/>
<path d="M17.7496 17.3479L18.066 17.5589C18.8573 16.4776 19.332 15.1589 19.4111 13.7611H14.8748C14.8485 14.6578 14.743 15.5281 14.5583 16.3721C15.6924 16.5567 16.7474 16.8996 17.6968 17.3479H17.7496Z" fill="#AAAAAA"/>
<path d="M12.0001 6.53479L11.7364 6.87765C11.2089 7.61611 10.8133 8.53919 10.5232 9.54138C11.0243 9.59413 11.5254 9.6205 12.0265 9.6205C12.5276 9.6205 13.0023 9.59413 13.477 9.54138C13.1869 8.53919 12.765 7.61611 12.2375 6.85127L12.0001 6.53479Z" fill="#AAAAAA"/>
<path d="M12.0001 20.0645L12.1056 19.9326C12.6858 19.1414 13.1342 18.1656 13.4507 17.1106C12.9759 17.0579 12.5012 17.0315 12.0265 17.0315C11.5254 17.0315 11.0243 17.0579 10.5496 17.1106C10.866 18.1656 11.3144 19.1414 11.8946 19.9062L12.0001 20.0645Z" fill="#AAAAAA"/>
<path d="M12.0264 16.1347C12.5802 16.1347 13.1341 16.1611 13.6879 16.2402C13.8725 15.449 13.9516 14.6051 13.978 13.7611H9.99561C10.022 14.6314 10.1275 15.449 10.2857 16.2402C10.8659 16.1611 11.4462 16.1347 12.0264 16.1347Z" fill="#AAAAAA"/>
</g>
</g>
<defs>
<clipPath id="clip0_1_2497">
<rect width="24" height="24" fill="white" transform="translate(0 0.969971)"/>
</clipPath>
<clipPath id="clip1_1_2497">
<rect width="24" height="24" fill="white" transform="translate(0 0.969971)"/>
</clipPath>
</defs>
</svg>
